<svg id="map-red-marker" x="0px" y="0px" viewBox="0 0 60 84" style="enable-background:new 0 0 60 84;" xml:space="preserve">
<style type="text/css">
  .st0{fill:#882420;}
  .st1{fill:#FFFFFF;}
</style>
<switch>
  <g i:extraneous="self">
   <g>
     <path class="st0" d="M13.3,53.2L13.3,53.2C5.8,47.8,1.4,39.1,1.4,30c0-15.8,12.9-28.7,28.7-28.7c15.8,0,28.7,12.9,28.7,28.7 c0,9.1-4.4,17.8-11.8,23.2l-0.1,0L30.1,82.3L13.3,53.2z M30.1,19.7c-6.8,0-12.3,5.5-12.3,12.3s5.5,12.3,12.3,12.3 S42.4,38.8,42.4,32S36.9,19.7,30.1,19.7z"></path>
     <path class="st1" d="M30.1,1.7c15.6,0,28.3,12.7,28.3,28.3c0,9-4.4,17.6-11.7,22.9L46.6,53l-0.1,0.1L30.1,81.7L13.6,53.1L13.5,53 l-0.1-0.1C6.1,47.6,1.7,39,1.7,30C1.7,14.4,14.5,1.7,30.1,1.7 M30.1,44.7c7,0,12.7-5.7,12.7-12.7s-5.7-12.7-12.7-12.7 S17.4,25,17.4,32S23.1,44.7,30.1,44.7 M30.1,1c-16,0-29,13-29,29c0,9.6,4.7,18.2,11.9,23.4L30.1,83l17.1-29.6 c7.2-5.3,11.9-13.8,11.9-23.4C59.1,14,46.1,1,30.1,1L30.1,1z M30.1,44c-6.6,0-12-5.4-12-12c0-6.6,5.4-12,12-12s12,5.4,12,12 C42.1,38.6,36.7,44,30.1,44L30.1,44z"></path>
    </g>
   </g>
  </switch>
</svg>
